<?xml version="1.0" encoding="utf-8"?>
<!-- Generator: Adobe Illustrator 16.0.0, SVG Export Plug-In . SVG Version: 6.00 Build 0)  -->
<!DOCTYPE svg PUBLIC "-//W3C//DTD SVG 1.1//EN" "http://www.w3.org/Graphics/SVG/1.1/DTD/svg11.dtd">
<svg version="1.1" id="Camada_1" xmlns="http://www.w3.org/2000/svg" xmlns:xlink="http://www.w3.org/1999/xlink" x="0px" y="0px"
	 width="645.13px" height="136.781px" viewBox="0 0 645.13 136.781" enable-background="new 0 0 645.13 136.781"
	 xml:space="preserve">
<g>
	<defs>
		<polygon id="SVGID_1_" points="158.081,84.414 164.948,91.793 157.428,76.796 151.944,70.892 		"/>
	</defs>
	<clipPath id="SVGID_2_">
		<use xlink:href="#SVGID_1_"  overflow="visible"/>
	</clipPath>
	
		<linearGradient id="SVGID_3_" gradientUnits="userSpaceOnUse" x1="0" y1="136.7813" x2="1" y2="136.7813" gradientTransform="matrix(14.6237 -13.5763 13.756 14.8171 -1730.4386 -1938.561)">
		<stop  offset="0" style="stop-color:#5B6181"/>
		<stop  offset="1" style="stop-color:#ACCFE4"/>
	</linearGradient>
	<polygon clip-path="url(#SVGID_2_)" fill="url(#SVGID_3_)" points="157.964,98.277 175.37,82.117 158.928,64.407 141.522,80.567 	
		"/>
</g>
<polygon fill="none" stroke="#FFFFFF" stroke-width="0.216" stroke-linejoin="bevel" stroke-miterlimit="22.926" points="
	164.949,91.793 157.428,76.796 151.945,70.892 158.081,84.415 "/>
<g>
	<defs>
		<polygon id="SVGID_4_" points="31.478,70.892 7.511,84.414 158.081,84.414 151.944,70.892 		"/>
	</defs>
	<clipPath id="SVGID_5_">
		<use xlink:href="#SVGID_4_"  overflow="visible"/>
	</clipPath>
	
		<linearGradient id="SVGID_6_" gradientUnits="userSpaceOnUse" x1="-4.882813e-004" y1="136.7822" x2="0.9995" y2="136.7822" gradientTransform="matrix(0 -13.5235 150.652 0 -20523.6211 84.4141)">
		<stop  offset="0" style="stop-color:#2A3267"/>
		<stop  offset="1" style="stop-color:#61A0CC"/>
	</linearGradient>
	<rect x="7.511" y="70.892" clip-path="url(#SVGID_5_)" fill="url(#SVGID_6_)" width="150.57" height="13.522"/>
</g>
<polygon fill="none" stroke="#FFFFFF" stroke-width="0.216" stroke-linejoin="bevel" stroke-miterlimit="22.926" points="
	158.081,84.415 151.944,70.892 31.478,70.892 7.511,84.415 "/>
<g>
	<defs>
		<polygon id="SVGID_7_" points="140.45,58.512 143.716,68.934 150.885,76.678 150.887,76.675 146.198,64.703 140.451,58.511 		"/>
	</defs>
	<clipPath id="SVGID_8_">
		<use xlink:href="#SVGID_7_"  overflow="visible"/>
	</clipPath>
	
		<linearGradient id="SVGID_9_" gradientUnits="userSpaceOnUse" x1="0" y1="136.7832" x2="1" y2="136.7832" gradientTransform="matrix(12.1066 -11.2397 11.4103 12.2905 -1421.1091 -1607.9011)">
		<stop  offset="0" style="stop-color:#5B6181"/>
		<stop  offset="1" style="stop-color:#ACCFE4"/>
	</linearGradient>
	<polygon clip-path="url(#SVGID_8_)" fill="url(#SVGID_9_)" points="145.281,81.882 159.945,68.268 146.056,53.307 131.392,66.92 	
		"/>
</g>
<polygon fill="none" stroke="#FFFFFF" stroke-width="0.216" stroke-linejoin="bevel" stroke-miterlimit="22.926" points="
	150.892,76.685 146.199,64.704 140.449,58.509 143.717,68.933 "/>
<g>
	<defs>
		<polygon id="SVGID_10_" points="44.056,58.509 23.235,68.934 143.716,68.934 140.449,58.509 		"/>
	</defs>
	<clipPath id="SVGID_11_">
		<use xlink:href="#SVGID_10_"  overflow="visible"/>
	</clipPath>
	
		<linearGradient id="SVGID_12_" gradientUnits="userSpaceOnUse" x1="4.882813e-004" y1="136.7822" x2="1.0005" y2="136.7822" gradientTransform="matrix(0 -10.4239 120.5126 0 -16400.3691 68.9297)">
		<stop  offset="0" style="stop-color:#2A3267"/>
		<stop  offset="1" style="stop-color:#61A0CC"/>
	</linearGradient>
	<rect x="23.235" y="58.509" clip-path="url(#SVGID_11_)" fill="url(#SVGID_12_)" width="120.481" height="10.424"/>
</g>
<polygon fill="none" stroke="#FFFFFF" stroke-width="0.216" stroke-linejoin="bevel" stroke-miterlimit="22.926" points="
	143.716,68.933 140.44,58.509 44.056,58.509 23.235,68.933 "/>
<g>
	<defs>
		<polygon id="SVGID_13_" points="129.046,46.232 129.469,53.568 136.536,61.183 136.542,61.178 134.699,52.318 129.048,46.231 		
			"/>
	</defs>
	<clipPath id="SVGID_14_">
		<use xlink:href="#SVGID_13_"  overflow="visible"/>
	</clipPath>
	
		<linearGradient id="SVGID_15_" gradientUnits="userSpaceOnUse" x1="0" y1="136.7813" x2="1" y2="136.7813" gradientTransform="matrix(9.088 -8.4267 8.588 9.262 -1046.4224 -1208.9471)">
		<stop  offset="0" style="stop-color:#5B6181"/>
		<stop  offset="1" style="stop-color:#ACCFE4"/>
	</linearGradient>
	<polygon clip-path="url(#SVGID_14_)" fill="url(#SVGID_15_)" points="132.511,64.92 143.997,54.271 133.077,42.494 121.591,53.144 
			"/>
</g>
<polygon fill="none" stroke="#FFFFFF" stroke-width="0.216" stroke-linejoin="bevel" stroke-miterlimit="22.926" points="
	136.544,61.192 134.699,52.318 129.045,46.229 129.468,53.578 "/>
<g>
	<defs>
		<polygon id="SVGID_16_" points="56.748,46.228 39.094,53.568 129.469,53.568 129.046,46.228 		"/>
	</defs>
	<clipPath id="SVGID_17_">
		<use xlink:href="#SVGID_16_"  overflow="visible"/>
	</clipPath>
	
		<linearGradient id="SVGID_18_" gradientUnits="userSpaceOnUse" x1="0" y1="136.7813" x2="1" y2="136.7813" gradientTransform="matrix(0 -7.3398 90.2502 0 -12260.2783 53.5664)">
		<stop  offset="0" style="stop-color:#2A3267"/>
		<stop  offset="1" style="stop-color:#61A0CC"/>
	</linearGradient>
	<rect x="39.094" y="46.228" clip-path="url(#SVGID_17_)" fill="url(#SVGID_18_)" width="90.375" height="7.34"/>
</g>
<polygon fill="none" stroke="#FFFFFF" stroke-width="0.216" stroke-linejoin="bevel" stroke-miterlimit="22.926" points="
	129.469,53.578 129.046,46.228 56.748,46.228 39.094,53.578 "/>
<g>
	<defs>
		<polygon id="SVGID_19_" points="114.977,37.974 122.159,45.598 123.212,39.831 117.453,33.738 		"/>
	</defs>
	<clipPath id="SVGID_20_">
		<use xlink:href="#SVGID_19_"  overflow="visible"/>
	</clipPath>
	
		<linearGradient id="SVGID_21_" gradientUnits="userSpaceOnUse" x1="0" y1="136.7813" x2="1" y2="136.7813" gradientTransform="matrix(9.2009 -8.6801 8.7482 9.2732 -1082.1121 -1224.3871)">
		<stop  offset="0" style="stop-color:#5B6181"/>
		<stop  offset="1" style="stop-color:#ACCFE4"/>
	</linearGradient>
	<polygon clip-path="url(#SVGID_20_)" fill="url(#SVGID_21_)" points="118.855,49.709 129.132,40.013 119.334,29.628 
		109.057,39.323 	"/>
</g>
<polygon fill="none" stroke="#FFFFFF" stroke-width="0.216" stroke-linejoin="bevel" stroke-miterlimit="22.926" points="
	122.159,45.599 123.212,39.831 117.453,33.739 114.977,37.975 "/>
<g>
	<defs>
		<polygon id="SVGID_22_" points="69.241,33.738 54.689,37.974 114.977,37.974 117.453,33.738 		"/>
	</defs>
	<clipPath id="SVGID_23_">
		<use xlink:href="#SVGID_22_"  overflow="visible"/>
	</clipPath>
	
		<linearGradient id="SVGID_24_" gradientUnits="userSpaceOnUse" x1="9.765625e-004" y1="136.7822" x2="1.001" y2="136.7822" gradientTransform="matrix(0 -4.2364 62.8693 0 -8513.2822 37.9766)">
		<stop  offset="0" style="stop-color:#2A3267"/>
		<stop  offset="1" style="stop-color:#61A0CC"/>
	</linearGradient>
	<rect x="54.689" y="33.738" clip-path="url(#SVGID_23_)" fill="url(#SVGID_24_)" width="62.764" height="4.236"/>
</g>
<polygon fill="none" stroke="#FFFFFF" stroke-width="0.216" stroke-linejoin="bevel" stroke-miterlimit="22.926" points="
	114.977,37.975 117.454,33.739 69.224,33.739 54.689,37.975 "/>
<g>
	<defs>
		<polygon id="SVGID_25_" points="100.598,22.497 107.791,30.111 111.719,27.463 105.947,21.346 		"/>
	</defs>
	<clipPath id="SVGID_26_">
		<use xlink:href="#SVGID_25_"  overflow="visible"/>
	</clipPath>
	
		<linearGradient id="SVGID_27_" gradientUnits="userSpaceOnUse" x1="0" y1="136.7793" x2="1" y2="136.7793" gradientTransform="matrix(9.7924 -9.238 9.1841 9.7351 -1154.9626 -1301.2134)">
		<stop  offset="0" style="stop-color:#5B6181"/>
		<stop  offset="1" style="stop-color:#ACCFE4"/>
	</linearGradient>
	<polygon clip-path="url(#SVGID_26_)" fill="url(#SVGID_27_)" points="105.835,35.662 116.094,25.984 106.482,15.795 96.223,25.474 
			"/>
</g>
<polygon fill="none" stroke="#FFFFFF" stroke-width="0.216" stroke-linejoin="bevel" stroke-miterlimit="22.926" points="
	107.792,30.111 111.718,27.463 105.946,21.346 100.599,22.498 "/>
<g>
	<defs>
		<polygon id="SVGID_28_" points="81.812,21.346 70.423,22.497 100.598,22.497 105.947,21.346 		"/>
	</defs>
	<clipPath id="SVGID_29_">
		<use xlink:href="#SVGID_28_"  overflow="visible"/>
	</clipPath>
	
		<linearGradient id="SVGID_30_" gradientUnits="userSpaceOnUse" x1="0" y1="136.7813" x2="1.0005" y2="136.7813" gradientTransform="matrix(0 -1.1504 36.0602 0 -4844.1699 22.4961)">
		<stop  offset="0" style="stop-color:#2A3267"/>
		<stop  offset="1" style="stop-color:#61A0CC"/>
	</linearGradient>
	<rect x="70.423" y="21.346" clip-path="url(#SVGID_29_)" fill="url(#SVGID_30_)" width="35.524" height="1.151"/>
</g>
<polygon fill="none" stroke="#FFFFFF" stroke-width="0.216" stroke-linejoin="bevel" stroke-miterlimit="22.926" points="
	100.599,22.497 105.947,21.347 81.812,21.347 70.422,22.497 "/>
<g>
	<defs>
		<polygon id="SVGID_31_" points="86.194,6.992 93.421,14.75 100.218,15.164 94.451,8.947 86.214,6.974 		"/>
	</defs>
	<clipPath id="SVGID_32_">
		<use xlink:href="#SVGID_31_"  overflow="visible"/>
	</clipPath>
	
		<linearGradient id="SVGID_33_" gradientUnits="userSpaceOnUse" x1="0" y1="136.7813" x2="1" y2="136.7813" gradientTransform="matrix(10.2183 -9.4864 9.344 10.0649 -1189.9622 -1360.8954)">
		<stop  offset="0" style="stop-color:#5B6181"/>
		<stop  offset="1" style="stop-color:#ACCFE4"/>
	</linearGradient>
	<polygon clip-path="url(#SVGID_32_)" fill="url(#SVGID_33_)" points="92.686,22.157 104.302,11.373 93.726,-0.019 82.11,10.766 	
		"/>
</g>
<polygon fill="none" stroke="#FFFFFF" stroke-width="0.216" stroke-linejoin="bevel" stroke-miterlimit="22.926" points="
	93.421,14.75 100.199,15.164 94.45,8.971 86.189,6.986 "/>
<g>
	<defs>
		<polygon id="SVGID_34_" points="78.306,14.75 88.115,15.164 100.219,15.164 93.421,14.75 		"/>
	</defs>
	<clipPath id="SVGID_35_">
		<use xlink:href="#SVGID_34_"  overflow="visible"/>
	</clipPath>
	
		<linearGradient id="SVGID_36_" gradientUnits="userSpaceOnUse" x1="-9.765625e-004" y1="136.7822" x2="0.999" y2="136.7822" gradientTransform="matrix(0 0.4133 -21.8358 0 3075.9973 14.751)">
		<stop  offset="0" style="stop-color:#040607"/>
		<stop  offset="1" style="stop-color:#040607"/>
	</linearGradient>
	<rect x="78.306" y="14.75" clip-path="url(#SVGID_35_)" fill="url(#SVGID_36_)" width="21.913" height="0.414"/>
</g>
<polygon fill="none" stroke="#FFFFFF" stroke-width="0.216" stroke-linejoin="bevel" stroke-miterlimit="22.926" points="
	78.307,14.75 88.115,15.164 100.219,15.164 93.42,14.75 "/>
<g>
	<defs>
		<rect id="SVGID_37_" width="645.13" height="136.781"/>
	</defs>
	<clipPath id="SVGID_38_">
		<use xlink:href="#SVGID_37_"  overflow="visible"/>
	</clipPath>
	
		<path clip-path="url(#SVGID_38_)" fill="none" stroke="#FFFFFF" stroke-width="0.216" stroke-linejoin="bevel" stroke-miterlimit="22.926" d="
		M93.421,14.75l-7.232-7.764l-7.882,7.764H93.421z M107.792,30.111l-7.193-7.614H70.423l-7.866,7.614H107.792z M122.159,45.599
		l-7.182-7.624H54.689l-7.867,7.624H122.159z M136.545,61.192l-7.076-7.614H39.095L31.1,61.192H136.545z M150.892,76.685
		l-7.175-7.752H23.236l-7.873,7.752H150.892z M164.949,91.793l-6.868-7.378H7.512L0,91.793H164.949z"/>
</g>
<path fill="#FFFFFF" d="M7.511,84.415L0,91.793h164.948l-6.867-7.378H7.511z M23.235,68.934l-7.872,7.751h135.528l-7.175-7.751
	H23.235z M39.094,53.568l-7.995,7.624h105.445l-7.076-7.624H39.094z M54.689,37.975l-7.854,7.623h75.323l-7.181-7.623H54.689z
	 M70.423,22.497l-7.866,7.614h45.234l-7.193-7.614H70.423z M78.306,14.75h15.115l-7.233-7.782L78.306,14.75z"/>
<path fill="#FFFFFF" d="M7.542,84.415l-7.497,7.359H164.9l-6.837-7.359H7.542z M23.248,68.934l-7.839,7.728h135.454l-7.169-7.728
	H23.248z M39.101,53.568l-7.971,7.618h105.368l-7.051-7.618H39.101z M54.71,37.998l-7.856,7.6h75.294l-7.193-7.6H54.71z
	 M70.439,22.515l-7.862,7.596h45.183l-7.162-7.596H70.439z M78.314,14.75h15.083l-7.209-7.741L78.314,14.75z"/>
<g>
	<defs>
		<polygon id="SVGID_39_" points="158.081,123.066 164.945,130.454 164.946,130.452 157.76,113.607 152.284,107.703 		"/>
	</defs>
	<clipPath id="SVGID_40_">
		<use xlink:href="#SVGID_39_"  overflow="visible"/>
	</clipPath>
	
		<linearGradient id="SVGID_41_" gradientUnits="userSpaceOnUse" x1="0" y1="136.7822" x2="1" y2="136.7822" gradientTransform="matrix(15.0958 -14.0145 14.2341 15.3322 -1795.8948 -1971.0835)">
		<stop  offset="0" style="stop-color:#5B6181"/>
		<stop  offset="1" style="stop-color:#ACCFE4"/>
	</linearGradient>
	<polygon clip-path="url(#SVGID_40_)" fill="url(#SVGID_41_)" points="158.146,136.768 176.29,119.923 159.084,101.39 
		140.94,118.235 	"/>
</g>
<polygon fill="none" stroke="#FFFFFF" stroke-width="0.216" stroke-linejoin="bevel" stroke-miterlimit="22.926" points="
	164.949,130.458 157.761,113.607 152.284,107.703 158.081,123.066 "/>
<g>
	<defs>
		<polygon id="SVGID_42_" points="31.826,107.703 7.511,123.066 158.081,123.066 152.284,107.703 		"/>
	</defs>
	<clipPath id="SVGID_43_">
		<use xlink:href="#SVGID_42_"  overflow="visible"/>
	</clipPath>
	
		<linearGradient id="SVGID_44_" gradientUnits="userSpaceOnUse" x1="0" y1="136.7813" x2="1" y2="136.7813" gradientTransform="matrix(0 -15.3632 150.5409 0 -20508.4199 123.0625)">
		<stop  offset="0" style="stop-color:#2A3267"/>
		<stop  offset="1" style="stop-color:#61A0CC"/>
	</linearGradient>
	<rect x="7.511" y="107.703" clip-path="url(#SVGID_43_)" fill="url(#SVGID_44_)" width="150.57" height="15.363"/>
</g>
<polygon fill="none" stroke="#FFFFFF" stroke-width="0.216" stroke-linejoin="bevel" stroke-miterlimit="22.926" points="
	158.081,123.066 152.284,107.703 31.826,107.703 7.511,123.066 "/>
<g>
	<defs>
		<polygon id="SVGID_45_" points="140.775,95.322 143.716,107.584 150.891,115.319 146.525,101.514 140.78,95.318 		"/>
	</defs>
	<clipPath id="SVGID_46_">
		<use xlink:href="#SVGID_45_"  overflow="visible"/>
	</clipPath>
	
		<linearGradient id="SVGID_47_" gradientUnits="userSpaceOnUse" x1="0" y1="136.7803" x2="1" y2="136.7803" gradientTransform="matrix(12.1655 -11.2942 11.5056 12.3933 -1433.9889 -1584.1995)">
		<stop  offset="0" style="stop-color:#5B6181"/>
		<stop  offset="1" style="stop-color:#ACCFE4"/>
	</linearGradient>
	<polygon clip-path="url(#SVGID_46_)" fill="url(#SVGID_47_)" points="145.458,120.363 160.864,106.061 146.208,90.274 
		130.802,104.577 	"/>
</g>
<polygon fill="none" stroke="#FFFFFF" stroke-width="0.216" stroke-linejoin="bevel" stroke-miterlimit="22.926" points="
	150.892,115.319 146.524,101.513 140.772,95.315 143.717,107.584 "/>
<g>
	<defs>
		<polygon id="SVGID_48_" points="44.391,95.311 23.235,107.584 143.716,107.584 140.773,95.311 		"/>
	</defs>
	<clipPath id="SVGID_49_">
		<use xlink:href="#SVGID_48_"  overflow="visible"/>
	</clipPath>
	
		<linearGradient id="SVGID_50_" gradientUnits="userSpaceOnUse" x1="9.765625e-004" y1="136.7813" x2="1.001" y2="136.7813" gradientTransform="matrix(0 -12.2734 120.5011 0 -16398.7949 107.5859)">
		<stop  offset="0" style="stop-color:#2A3267"/>
		<stop  offset="1" style="stop-color:#61A0CC"/>
	</linearGradient>
	<rect x="23.235" y="95.311" clip-path="url(#SVGID_49_)" fill="url(#SVGID_50_)" width="120.481" height="12.273"/>
</g>
<polygon fill="none" stroke="#FFFFFF" stroke-width="0.216" stroke-linejoin="bevel" stroke-miterlimit="22.926" points="
	143.716,107.584 140.772,95.315 44.391,95.315 23.235,107.584 "/>
<g>
	<defs>
		<polygon id="SVGID_51_" points="129.38,83.029 129.469,92.21 136.532,99.828 136.541,99.82 135.026,89.125 129.382,83.028 		"/>
	</defs>
	<clipPath id="SVGID_52_">
		<use xlink:href="#SVGID_51_"  overflow="visible"/>
	</clipPath>
	
		<linearGradient id="SVGID_53_" gradientUnits="userSpaceOnUse" x1="0" y1="136.7813" x2="1" y2="136.7813" gradientTransform="matrix(9.2701 -8.5955 8.7927 9.4827 -1074.3517 -1201.3352)">
		<stop  offset="0" style="stop-color:#5B6181"/>
		<stop  offset="1" style="stop-color:#ACCFE4"/>
	</linearGradient>
	<polygon clip-path="url(#SVGID_52_)" fill="url(#SVGID_53_)" points="132.69,103.398 144.917,92.062 133.23,79.458 121.004,90.795 
			"/>
</g>
<polygon fill="none" stroke="#FFFFFF" stroke-width="0.216" stroke-linejoin="bevel" stroke-miterlimit="22.926" points="
	136.544,99.842 135.025,89.125 129.38,83.027 129.468,92.211 "/>
<g>
	<defs>
		<polygon id="SVGID_54_" points="57.082,83.027 39.094,92.21 129.469,92.21 129.38,83.027 		"/>
	</defs>
	<clipPath id="SVGID_55_">
		<use xlink:href="#SVGID_54_"  overflow="visible"/>
	</clipPath>
	
		<linearGradient id="SVGID_56_" gradientUnits="userSpaceOnUse" x1="0" y1="136.7813" x2="1" y2="136.7813" gradientTransform="matrix(0 -9.1836 90.2135 0 -12255.2676 92.2109)">
		<stop  offset="0" style="stop-color:#2A3267"/>
		<stop  offset="1" style="stop-color:#61A0CC"/>
	</linearGradient>
	<rect x="39.094" y="83.027" clip-path="url(#SVGID_55_)" fill="url(#SVGID_56_)" width="90.375" height="9.183"/>
</g>
<polygon fill="none" stroke="#FFFFFF" stroke-width="0.216" stroke-linejoin="bevel" stroke-miterlimit="22.926" points="
	129.469,92.211 129.381,83.027 57.082,83.027 39.094,92.211 "/>
<g>
	<defs>
		<polygon id="SVGID_57_" points="114.977,76.604 122.159,84.245 123.533,76.63 117.784,70.549 		"/>
	</defs>
	<clipPath id="SVGID_58_">
		<use xlink:href="#SVGID_57_"  overflow="visible"/>
	</clipPath>
	
		<linearGradient id="SVGID_59_" gradientUnits="userSpaceOnUse" x1="0" y1="136.7813" x2="1" y2="136.7813" gradientTransform="matrix(9.7531 -9.2011 9.2973 9.8551 -1157.3213 -1265.9829)">
		<stop  offset="0" style="stop-color:#5B6181"/>
		<stop  offset="1" style="stop-color:#ACCFE4"/>
	</linearGradient>
	<polygon clip-path="url(#SVGID_58_)" fill="url(#SVGID_59_)" points="119.006,88.516 130.37,77.796 119.504,66.278 108.141,76.999 
			"/>
</g>
<polygon fill="none" stroke="#FFFFFF" stroke-width="0.216" stroke-linejoin="bevel" stroke-miterlimit="22.926" points="
	122.159,84.245 123.534,76.631 117.784,70.55 114.977,76.626 "/>
<g>
	<defs>
		<polygon id="SVGID_60_" points="69.566,70.549 54.689,76.604 114.977,76.604 117.784,70.549 		"/>
	</defs>
	<clipPath id="SVGID_61_">
		<use xlink:href="#SVGID_60_"  overflow="visible"/>
	</clipPath>
	
		<linearGradient id="SVGID_62_" gradientUnits="userSpaceOnUse" x1="4.882813e-004" y1="136.7813" x2="1.0005" y2="136.7813" gradientTransform="matrix(0 -6.0538 62.8239 0 -8506.8867 76.6055)">
		<stop  offset="0" style="stop-color:#2A3267"/>
		<stop  offset="1" style="stop-color:#61A0CC"/>
	</linearGradient>
	<rect x="54.689" y="70.549" clip-path="url(#SVGID_61_)" fill="url(#SVGID_62_)" width="63.095" height="6.055"/>
</g>
<polygon fill="none" stroke="#FFFFFF" stroke-width="0.216" stroke-linejoin="bevel" stroke-miterlimit="22.926" points="
	114.977,76.626 117.785,70.55 69.566,70.55 54.689,76.626 "/>
<g>
	<defs>
		<polygon id="SVGID_63_" points="100.598,61.153 107.791,68.763 112.045,64.257 106.309,58.17 		"/>
	</defs>
	<clipPath id="SVGID_64_">
		<use xlink:href="#SVGID_63_"  overflow="visible"/>
	</clipPath>
	
		<linearGradient id="SVGID_65_" gradientUnits="userSpaceOnUse" x1="4.882813e-004" y1="136.7813" x2="1.0005" y2="136.7813" gradientTransform="matrix(11.3984 -10.7532 10.7323 11.3761 -1367.3176 -1487.226)">
		<stop  offset="0" style="stop-color:#5B6181"/>
		<stop  offset="1" style="stop-color:#ACCFE4"/>
	</linearGradient>
	<polygon clip-path="url(#SVGID_64_)" fill="url(#SVGID_65_)" points="105.988,74.477 117.333,63.775 106.655,52.457 95.311,63.159 
			"/>
</g>
<polygon fill="none" stroke="#FFFFFF" stroke-width="0.216" stroke-linejoin="bevel" stroke-miterlimit="22.926" points="
	107.792,68.763 112.044,64.258 106.31,58.169 100.599,61.154 "/>
<g>
	<defs>
		<polygon id="SVGID_66_" points="82.158,58.17 70.423,61.153 100.598,61.153 106.309,58.17 		"/>
	</defs>
	<clipPath id="SVGID_67_">
		<use xlink:href="#SVGID_66_"  overflow="visible"/>
	</clipPath>
	
		<linearGradient id="SVGID_68_" gradientUnits="userSpaceOnUse" x1="0" y1="136.7813" x2="1" y2="136.7813" gradientTransform="matrix(0 -2.9834 35.8628 0 -4816.9863 61.1523)">
		<stop  offset="0" style="stop-color:#2A3267"/>
		<stop  offset="1" style="stop-color:#61A0CC"/>
	</linearGradient>
	<rect x="70.423" y="58.17" clip-path="url(#SVGID_67_)" fill="url(#SVGID_68_)" width="35.886" height="2.983"/>
</g>
<polygon fill="none" stroke="#FFFFFF" stroke-width="0.216" stroke-linejoin="bevel" stroke-miterlimit="22.926" points="
	100.599,61.153 106.309,58.17 82.159,58.17 70.422,61.153 "/>
<g>
	<defs>
		<polygon id="SVGID_69_" points="86.193,45.628 93.421,53.4 100.546,51.968 94.766,45.745 86.198,45.624 		"/>
	</defs>
	<clipPath id="SVGID_70_">
		<use xlink:href="#SVGID_69_"  overflow="visible"/>
	</clipPath>
	
		<linearGradient id="SVGID_71_" gradientUnits="userSpaceOnUse" x1="0" y1="136.7813" x2="1" y2="136.7813" gradientTransform="matrix(9.7713 -9.0715 8.9196 9.6077 -1131.5437 -1260.1089)">
		<stop  offset="0" style="stop-color:#5B6181"/>
		<stop  offset="1" style="stop-color:#ACCFE4"/>
	</linearGradient>
	<polygon clip-path="url(#SVGID_70_)" fill="url(#SVGID_71_)" points="92.837,60.557 104.423,49.801 93.902,38.467 82.316,49.224 	
		"/>
</g>
<polygon fill="none" stroke="#FFFFFF" stroke-width="0.216" stroke-linejoin="bevel" stroke-miterlimit="22.926" points="
	93.421,53.399 100.546,51.967 94.767,45.745 86.189,45.625 "/>
<g>
	<defs>
		<rect id="SVGID_72_" width="645.13" height="136.781"/>
	</defs>
	<clipPath id="SVGID_73_">
		<use xlink:href="#SVGID_72_"  overflow="visible"/>
	</clipPath>
	
		<path clip-path="url(#SVGID_73_)" fill="none" stroke="#FFFFFF" stroke-width="0.216" stroke-linejoin="bevel" stroke-miterlimit="22.926" d="
		M93.421,53.399l-7.232-7.775l-7.882,7.775H93.421z M107.792,68.763l-7.193-7.61H70.423l-7.866,7.61H107.792z M122.159,84.245
		l-7.182-7.642H54.689l-7.867,7.642H122.159z M136.545,99.842l-7.076-7.631H39.095L31.1,99.842H136.545z M150.892,115.319
		l-7.175-7.735H23.236l-7.873,7.735H150.892z M164.949,130.458l-6.868-7.392H7.512L0,130.458H164.949z"/>
</g>
<path fill="#FFFFFF" d="M7.511,123.065L0,130.458h164.948l-6.867-7.393H7.511z M23.235,107.585l-7.872,7.733h135.528l-7.175-7.733
	H23.235z M39.094,92.211l-7.995,7.631h105.445l-7.076-7.631H39.094z M54.689,76.604l-7.854,7.643h75.323l-7.181-7.643H54.689z
	 M70.423,61.154l-7.866,7.609h45.234l-7.193-7.609H70.423z M78.306,53.4h15.115l-7.233-7.776L78.306,53.4z"/>
<path fill="#FFFFFF" d="M7.511,123.065l-7.467,7.33H164.91l-6.829-7.33H7.511z M23.235,107.585l-3.929,3.852l-3.897,3.86h135.453
	l-4.294-4.639l-2.852-3.073H23.235z M39.094,92.211l-7.965,7.604h105.368l-7.029-7.604H39.094z M54.689,76.604l-1.977,1.939
	l-5.857,5.682h75.293l-7.171-7.621H54.689z M70.423,61.154l-7.845,7.586h45.192l-3.491-3.707l-3.681-3.879H70.423z M78.306,53.4
	h15.115l-7.233-7.776L78.306,53.4z"/>
<g>
	<defs>
		<rect id="SVGID_74_" width="645.13" height="136.781"/>
	</defs>
	<clipPath id="SVGID_75_">
		<use xlink:href="#SVGID_74_"  overflow="visible"/>
	</clipPath>
	<path clip-path="url(#SVGID_75_)" fill="#FFFFFF" d="M606.455,88.149c6.571,0,12.004-2.3,16.301-6.918
		c4.291-4.601,6.413-10.372,6.413-17.327c0-6.871-2.145-12.64-6.485-17.337c-4.329-4.681-9.75-7.038-16.229-7.038
		c-6.588,0-12.027,2.342-16.349,7.016c-4.353,4.683-6.519,10.468-6.519,17.359c0,7.027,2.143,12.817,6.416,17.395
		C594.259,85.867,599.754,88.149,606.455,88.149 M645.13,63.904c0,5.177-0.969,10.094-2.9,14.699
		c-1.939,4.649-4.73,8.719-8.369,12.189c-3.761,3.625-7.993,6.372-12.727,8.287c-4.735,1.91-9.62,2.874-14.679,2.874
		c-4.412,0-8.753-0.743-13.001-2.237c-4.228-1.502-8.133-3.677-11.672-6.483c-4.567-3.637-8.046-7.966-10.477-13.031
		c-2.413-5.052-3.637-10.491-3.637-16.298c0-5.23,0.957-10.134,2.874-14.706c1.901-4.573,4.698-8.651,8.409-12.225
		c3.65-3.532,7.875-6.264,12.674-8.205c4.793-1.975,9.767-2.953,14.829-2.953c5.059,0,9.999,0.978,14.753,2.953
		c4.764,1.941,8.992,4.673,12.652,8.205c3.676,3.574,6.464,7.652,8.369,12.248C644.161,53.822,645.13,58.697,645.13,63.904
		 M542.292,4.705c-0.932,4.198-2.205,7.25-3.873,9.134c-1.659,1.91-3.802,2.848-6.442,2.848c-0.691,0-1.337-0.034-1.937-0.116
		c-0.616-0.097-1.199-0.243-1.778-0.423l-4.34-1.302c-0.674-0.194-1.288-0.319-1.767-0.399c-0.499-0.066-1.006-0.086-1.508-0.086
		c-1.127,0-2.023,0.291-2.712,0.928c-0.711,0.603-1.259,1.58-1.636,2.928h-5.488c0.862-4.048,2.138-7.013,3.765-8.871
		c1.636-1.872,3.752-2.815,6.396-2.815c0.576,0,1.229,0.054,1.969,0.179c0.725,0.121,1.484,0.276,2.285,0.534l4.62,1.218
		c0.396,0.13,0.8,0.235,1.248,0.296c0.455,0.09,0.945,0.125,1.473,0.125c1.104,0,1.971-0.356,2.685-1.034
		c0.708-0.669,1.22-1.72,1.582-3.144H542.292z M489.811,100.041l27.621-72.588h17.78l28.003,72.588h-17.653l-5.899-15.438h-28.114
		l-5.067,15.438H489.811z M536.035,72.423l-8.143-23.457c-0.214-0.696-0.521-1.894-0.875-3.563c-0.377-1.694-0.747-3.75-1.153-6.206
		c-0.416,2.356-0.841,4.459-1.238,6.324c-0.401,1.885-0.682,3.105-0.874,3.746l-7.854,23.156H536.035z M440.503,100.041V27.453
		h42.734v13.094h-27.208v14.927h27.208v13.209h-27.208v18.158h27.208v13.2H440.503z M390.414,100.041V27.453h15.545v59.388h24.757
		v13.2H390.414z M358.373,27.453h15.536v72.588h-15.536V27.453z M273.381,100.041V27.453h16.137l32.147,42.237
		c0.896,1.191,1.917,2.867,3.025,5.035c1.094,2.173,2.251,4.72,3.447,7.67c-0.373-2.161-0.627-4.275-0.792-6.399
		c-0.16-2.133-0.251-4.771-0.251-7.938V27.453h14.822v72.588h-15.236l-33.013-43.052c-0.911-1.174-1.933-2.849-3.022-5.028
		c-1.105-2.161-2.252-4.754-3.474-7.754c0.361,2.094,0.645,4.191,0.791,6.32c0.155,2.121,0.245,4.845,0.245,8.059v41.455H273.381z
		 M634.395,124.774c0-1.58-0.534-2.907-1.575-4.024c-1.069-1.1-2.373-1.646-3.899-1.646c-1.562,0-2.899,0.523-3.98,1.583
		c-1.131,1.062-1.685,2.367-1.685,3.898c0,1.511,0.546,2.818,1.599,3.957c1.095,1.099,2.398,1.664,3.911,1.664
		s2.83-0.516,3.969-1.582C633.842,127.57,634.395,126.299,634.395,124.774 M636.795,124.774c0,2.166-0.775,4.011-2.333,5.525
		c-1.587,1.548-3.487,2.314-5.697,2.314c-2.222,0-4.134-0.767-5.706-2.314c-1.6-1.515-2.375-3.364-2.375-5.574
		c0-2.205,0.769-4.105,2.318-5.684c1.518-1.567,3.393-2.359,5.593-2.359c2.252,0,4.181,0.792,5.8,2.359
		C636.01,120.604,636.795,122.521,636.795,124.774 M608.33,132.139h-2.692V117.23h2.692V132.139z M608.76,110.112
		c0,0.522-0.169,0.972-0.504,1.292c-0.361,0.349-0.767,0.528-1.287,0.528c-0.514,0-0.946-0.18-1.29-0.528
		c-0.353-0.32-0.521-0.77-0.521-1.292c0-0.507,0.168-0.95,0.521-1.275c0.344-0.349,0.776-0.514,1.29-0.514
		c0.521,0,0.926,0.165,1.287,0.514C608.591,109.162,608.76,109.605,608.76,110.112 M594.827,117.813l-1.557,2.139
		c-0.6-0.551-1.166-0.823-1.693-0.823c-0.83,0-1.652,0.5-2.447,1.524c-0.821,0.999-1.22,1.845-1.22,2.519v8.968h-2.604v-14.842
		h2.393v3.453c0.319-1.076,0.881-2.01,1.699-2.81c0.844-0.792,1.798-1.192,2.82-1.192
		C593.055,116.748,593.926,117.104,594.827,117.813 M569.586,110.235l-4.218,4.761h-2.098l2.747-4.761H569.586z M569.69,124.803
		c0-1.529-0.43-2.808-1.296-3.859c-0.935-1.162-2.208-1.753-3.802-1.753c-1.42,0-2.668,0.591-3.667,1.753
		c-1.027,1.154-1.531,2.455-1.531,3.927c0,1.44,0.472,2.679,1.436,3.755c0.946,1.094,2.208,1.645,3.763,1.645
		c1.654,0,2.948-0.578,3.868-1.727C569.276,127.514,569.69,126.275,569.69,124.803 M572.263,132.139h-2.419v-2.968
		c-0.548,1.062-1.348,1.878-2.451,2.468c-1.082,0.578-2.242,0.881-3.444,0.881c-2.096,0-3.845-0.83-5.244-2.461
		c-1.306-1.545-1.963-3.397-1.963-5.517c0-1.978,0.689-3.75,2.056-5.317c1.473-1.653,3.204-2.477,5.229-2.477
		c1.146,0,2.233,0.277,3.251,0.81c0.985,0.56,1.814,1.343,2.512,2.394v-2.779h2.475V132.139z M547.153,119.43h-2.688v12.709h-2.586
		V119.43h-2.347v-2.074h2.347v-6.023h2.586v6.023h2.688V119.43z M528.097,132.139h-2.669V117.23h2.669V132.139z M528.546,110.112
		c0,0.522-0.175,0.972-0.526,1.292c-0.341,0.349-0.766,0.528-1.277,0.528c-0.515,0-0.945-0.18-1.294-0.528
		c-0.339-0.32-0.522-0.77-0.522-1.292c0-0.507,0.184-0.95,0.522-1.275c0.349-0.349,0.779-0.514,1.294-0.514
		c0.512,0,0.937,0.165,1.277,0.514C528.371,109.162,528.546,109.605,528.546,110.112 M512.973,127.763
		c0,1.408-0.423,2.53-1.236,3.349c-0.925,0.908-2.321,1.35-4.183,1.35c-1.199,0-2.327-0.244-3.393-0.721
		c-1.029-0.457-1.924-1.176-2.621-2.099l2.245-1.521c0.358,0.701,0.853,1.264,1.503,1.675c0.665,0.397,1.418,0.6,2.189,0.6
		c0.804,0,1.466-0.149,1.977-0.435c0.658-0.395,1-0.95,1-1.694c0-0.901-0.697-1.622-2.068-2.149
		c-1.371-0.543-2.721-1.055-4.053-1.575c-1.473-0.822-2.193-1.947-2.193-3.415c0-1.408,0.579-2.55,1.743-3.37
		c1.026-0.757,2.325-1.136,3.873-1.136c1.125,0,2.117,0.248,2.946,0.734c0.846,0.514,1.573,1.269,2.227,2.261l-2.117,1.259
		c-0.197-0.608-0.672-1.136-1.396-1.577c-0.758-0.406-1.511-0.615-2.303-0.615c-0.632,0-1.181,0.218-1.646,0.669
		c-0.494,0.469-0.75,0.996-0.75,1.592c0,0.982,1.373,1.894,4.136,2.692C511.564,124.459,512.973,125.839,512.973,127.763
		 M492.701,117.813l-1.531,2.139c-0.604-0.551-1.171-0.823-1.706-0.823c-0.836,0-1.658,0.5-2.458,1.524
		c-0.809,0.999-1.211,1.845-1.211,2.519v8.968h-2.61v-14.842h2.406v3.453c0.303-1.076,0.878-2.01,1.708-2.81
		c0.839-0.792,1.779-1.192,2.779-1.192C490.942,116.748,491.813,117.104,492.701,117.813 M468.737,123.025
		c-0.246-1.204-0.827-2.178-1.722-2.961c-0.883-0.744-1.968-1.125-3.179-1.125c-1.095,0-2.043,0.386-2.863,1.181
		c-0.841,0.829-1.372,1.801-1.64,2.905H468.737z M471.391,128.625c-0.899,1.22-1.979,2.17-3.285,2.842
		c-1.294,0.672-2.698,0.994-4.141,0.994c-2.266,0-4.104-0.799-5.466-2.375c-1.306-1.494-1.936-3.299-1.936-5.485
		c0-2.126,0.63-3.948,1.896-5.473c1.39-1.661,3.199-2.507,5.439-2.507c2.607,0,4.562,0.854,5.828,2.569
		c1.078,1.43,1.601,3.351,1.601,5.774h-12.132c0,1.432,0.465,2.672,1.396,3.695c0.92,1.031,2.075,1.547,3.439,1.547
		c1.233,0,2.279-0.246,3.127-0.783c0.679-0.413,1.381-1.134,2.101-2.126L471.391,128.625z M446.896,117.172l-7.036,15.482h-0.686
		l-7.279-15.482h3.161l4.602,11l4.242-11H446.896z M420.671,132.139h-2.675V117.23h2.675V132.139z M421.114,110.112
		c0,0.522-0.17,0.972-0.516,1.292c-0.335,0.349-0.756,0.528-1.278,0.528c-0.519,0-0.952-0.18-1.294-0.528
		c-0.352-0.32-0.521-0.77-0.521-1.292c0-0.507,0.169-0.95,0.521-1.275c0.342-0.349,0.775-0.514,1.294-0.514
		c0.522,0,0.943,0.165,1.278,0.514C420.944,109.162,421.114,109.605,421.114,110.112 M404.69,132.139h-2.734v-10.44
		c0-0.571-0.362-1.134-1.066-1.72c-0.728-0.563-1.443-0.851-2.185-0.851c-0.839,0-1.694,0.362-2.607,1.05
		c-0.911,0.742-1.387,1.437-1.387,2.09v9.871h-2.601v-14.967h2.535v2.567c0.574-0.918,1.215-1.622,1.942-2.089
		c0.825-0.532,1.769-0.8,2.828-0.8c1.469,0,2.709,0.505,3.765,1.518c0.996,1.011,1.51,2.138,1.51,3.409V132.139z M378.775,108.323
		l-0.028,16.219c0,2.354-0.906,4.317-2.688,5.854c-1.811,1.548-4.137,2.316-7.034,2.316c-2.74,0-4.971-0.802-6.681-2.377
		c-1.757-1.562-2.607-3.541-2.607-5.918v-16.094h2.858v16.094c0,1.798,0.683,3.22,1.991,4.271c1.225,0.971,2.825,1.455,4.766,1.455
		c1.767,0,3.274-0.559,4.581-1.683c1.286-1.11,1.916-2.466,1.916-4.043v-16.094H378.775z M334.614,124.774
		c0-1.58-0.513-2.907-1.578-4.024c-1.059-1.1-2.372-1.646-3.898-1.646c-1.555,0-2.869,0.523-3.977,1.583
		c-1.118,1.062-1.69,2.367-1.69,3.898c0,1.511,0.549,2.818,1.624,3.957c1.066,1.099,2.363,1.664,3.892,1.664
		c1.524,0,2.84-0.516,3.976-1.582C334.075,127.57,334.614,126.299,334.614,124.774 M337.035,124.774
		c0,2.166-0.799,4.011-2.354,5.525c-1.573,1.548-3.474,2.314-5.695,2.314s-4.121-0.767-5.699-2.314
		c-1.594-1.515-2.37-3.364-2.37-5.574c0-2.205,0.753-4.105,2.302-5.684c1.526-1.567,3.396-2.359,5.616-2.359
		c2.245,0,4.171,0.792,5.779,2.359C336.236,120.604,337.035,122.521,337.035,124.774 M311.5,117.813l-1.526,2.139
		c-0.629-0.551-1.172-0.823-1.717-0.823c-0.84,0-1.655,0.5-2.454,1.524c-0.807,0.999-1.2,1.845-1.2,2.519v8.968h-2.625v-14.842h2.4
		v3.453c0.322-1.076,0.89-2.01,1.724-2.81c0.841-0.792,1.754-1.192,2.806-1.192C309.746,116.748,310.595,117.104,311.5,117.813
		 M291.067,119.43h-2.673v12.709h-2.622V119.43h-2.334v-2.074h2.334v-6.023h2.622v6.023h2.673V119.43z M272.503,132.139h-2.735
		v-10.44c0-0.571-0.369-1.134-1.078-1.72c-0.726-0.563-1.441-0.851-2.202-0.851c-0.81,0-1.698,0.362-2.603,1.05
		c-0.908,0.742-1.362,1.437-1.362,2.09v9.871h-2.615v-14.967h2.542v2.567c0.577-0.918,1.207-1.622,1.956-2.089
		c0.782-0.532,1.749-0.8,2.82-0.8c1.447,0,2.7,0.505,3.729,1.518c1.03,1.011,1.548,2.138,1.548,3.409V132.139z M245.637,123.025
		c-0.233-1.204-0.799-2.178-1.695-2.961c-0.903-0.744-1.971-1.125-3.189-1.125c-1.102,0-2.053,0.386-2.856,1.181
		c-0.828,0.829-1.4,1.801-1.643,2.905H245.637z M248.323,128.625c-0.897,1.22-2.01,2.17-3.304,2.842
		c-1.312,0.672-2.677,0.994-4.12,0.994c-2.296,0-4.117-0.799-5.502-2.375c-1.269-1.494-1.922-3.299-1.922-5.485
		c0-2.126,0.645-3.948,1.898-5.473c1.397-1.661,3.221-2.507,5.444-2.507c2.624,0,4.572,0.854,5.825,2.569
		c1.077,1.43,1.599,3.351,1.599,5.774h-12.118c0,1.432,0.459,2.672,1.385,3.695c0.926,1.031,2.064,1.547,3.438,1.547
		c1.247,0,2.293-0.246,3.125-0.783c0.694-0.413,1.376-1.134,2.117-2.126L248.323,128.625z M222.467,131.066
		c-2.232,0.972-4.499,1.453-6.803,1.453c-3.895,0-7.042-1.236-9.424-3.725c-2.214-2.319-3.294-5.178-3.294-8.572
		c0-3.283,1.11-6.179,3.367-8.653c2.388-2.637,5.427-3.943,9.1-3.943c1.446,0,3.03,0.256,4.802,0.78
		c0.576,0.177,1.327,0.444,2.252,0.855v3.145c-2.053-1.494-4.223-2.208-6.475-2.208c-2.926,0-5.344,1.006-7.274,3.074
		c-1.837,1.979-2.762,4.285-2.762,6.95c0,2.674,0.902,4.963,2.724,6.857c1.956,2.005,4.413,3.006,7.453,3.006
		c1.051,0,2.073-0.199,3.037-0.59c0.998-0.383,2.087-0.976,3.297-1.777V131.066z M257.352,27.453v45.184
		c0,9.841-2.569,17.212-7.779,22.056c-5.186,4.848-13.014,7.262-23.486,7.262c-10.592,0-18.497-2.414-23.684-7.262
		c-5.192-4.844-7.777-12.215-7.777-22.056V27.453h15.425v42.758c0,5.99,1.311,10.481,3.961,13.519
		c2.654,3.023,6.604,4.533,11.856,4.533c5.288,0,9.288-1.51,11.985-4.575c2.719-3.039,4.069-7.53,4.069-13.477V27.453H257.352z"/>
</g>
</svg>
