<svg xmlns="http://www.w3.org/2000/svg" viewBox="0 0 374 228" width="374" height="228">
	<style>
		tspan { white-space:pre }
		.shp0 { fill: #ffffff } 
	</style>
	<path id="Forma 1" class="shp0" d="M5.34 190.91L14.05 190.91C19.07 190.91 21.58 193.32 21.58 198.16L21.58 218.13C21.58 222.94 18.95 225.35 13.69 225.36L5.34 225.36L5.34 190.91ZM10.99 195.8L10.99 220.45L13.47 220.45C15.11 220.45 15.93 219.68 15.93 218.13L15.93 198.16C15.93 196.58 15.11 195.8 13.47 195.8L10.99 195.8ZM46.94 190.91L52.6 190.91L52.6 225.36L46.94 225.36L46.94 190.91ZM94.21 218.75C94.21 223.57 91.49 225.99 86.07 226C80.66 226 77.96 223.58 77.96 218.75L77.96 197.66C77.96 192.84 80.66 190.43 86.07 190.43C91.49 190.43 94.21 192.84 94.21 197.66L94.21 202.29L88.55 202.29L88.55 197.66C88.55 196.11 87.73 195.34 86.09 195.34L86.05 195.34C84.43 195.34 83.61 196.11 83.61 197.66L83.61 218.75C83.61 220.3 84.43 221.07 86.07 221.07C87.72 221.07 88.55 220.3 88.55 218.75L88.55 210.66L86.09 210.66L86.09 205.75L94.21 205.75L94.21 218.75ZM119.56 190.91L125.22 190.91L125.22 225.36L119.56 225.36L119.56 190.91ZM165.63 190.91L165.63 195.8L160.33 195.8L160.33 225.36L154.68 225.36L154.68 195.8L149.38 195.8L149.38 190.91L165.63 190.91ZM205.45 213.14L207.29 225.36L201.58 225.36L200.48 218.05L194.7 218.05L193.58 225.36L187.89 225.36L189.73 213.18L193.72 190.91L201.48 190.91L205.45 213.14ZM199.74 213.14L197.58 198.8L195.42 213.14L199.74 213.14ZM231.15 225.36L231.15 190.91L236.81 190.91L236.81 220.45L245.82 220.45L245.82 225.36L231.15 225.36ZM72.21 169.45L16.64 169.45C8.37 169.45 5 166.16 5 158.1L5 16.35C5 8.29 8.37 5 16.64 5L72.21 5C94.5 5 112.84 11.05 125.24 22.5C137.49 33.81 143.97 50.31 143.97 70.24L143.97 104.21C143.97 145.06 117.14 169.45 72.21 169.45ZM16.64 8.68C10.41 8.68 8.7 10.33 8.7 16.35L8.7 158.1C8.7 164.12 10.41 165.77 16.64 165.77L72.21 165.77C114.83 165.77 140.27 142.76 140.27 104.21L140.27 70.24C140.27 31.12 115.46 8.68 72.21 8.68L16.64 8.68ZM262.95 169.45L238.36 169.45C226.24 169.45 221.65 166.82 219.5 158.61L214.69 143.64L168.2 143.64L163.38 158.66C160.66 167.03 156.54 169.45 144.99 169.45L121.08 169.45C117.11 169.45 114.5 168.49 113.12 166.52C111.24 163.83 112.26 160.19 113.2 157.69L165.57 14.14C168.25 6.42 172.25 5 179.15 5L205.11 5C212.66 5 216.21 7.26 218.68 13.65L271.3 157.7C272.66 161.36 272.62 164.27 271.18 166.32C269.71 168.43 267.02 169.45 262.95 169.45ZM165.5 139.96L217.39 139.96L223.07 157.64C224.51 163.17 226.48 165.77 238.36 165.77L262.95 165.77C264.83 165.77 267.25 165.5 268.15 164.22C269.03 162.96 268.46 160.67 267.82 158.97L215.21 14.94C213.29 9.97 211.21 8.68 205.11 8.68L179.15 8.68C173.22 8.68 171.06 9.6 169.06 15.36L116.67 158.96C115.68 161.61 115.51 163.49 116.15 164.41C116.78 165.3 118.48 165.77 121.08 165.77L144.99 165.77C156.08 165.77 157.96 163.39 159.86 157.54L165.5 139.96ZM306.37 169.45L280.64 169.45C272.37 169.45 269 166.16 269 158.1L269 105.84L216.88 17.28C214.16 12.84 214.68 9.97 215.6 8.34C216.46 6.82 218.49 5 223.25 5L250.58 5C262.04 5 266.26 5.45 271.11 14.34L293.87 57.49L317.27 14.34C322.13 5.45 326.28 5 337.57 5L363.76 5C368.33 5 370.32 6.77 371.19 8.25C372.55 10.56 372.19 13.67 370.15 17.25L370.14 17.28L317.79 105.84L317.79 158.1C317.79 166.27 314.59 169.45 306.37 169.45ZM223.25 8.68C220.93 8.68 219.36 9.2 218.83 10.14C218.23 11.2 218.69 13.16 220.05 15.39L272.7 104.84L272.7 158.1C272.7 164.12 274.41 165.77 280.64 165.77L306.37 165.77C312.5 165.77 314.09 164.2 314.09 158.1L314.09 104.84L366.94 15.43C368.23 13.16 368.62 11.17 368 10.11C367.46 9.19 365.95 8.68 363.76 8.68L337.57 8.68C326.37 8.68 324.3 9.18 320.53 16.09L293.83 65.33L267.85 16.07C264.08 9.18 261.98 8.68 250.58 8.68L223.25 8.68ZM54.42 138.35C59.57 138.35 62.15 141.21 62.17 146.94C62.17 152.66 59.58 155.52 54.42 155.52L24.72 155.52L24.72 149.54L54.42 149.54C56.07 149.54 56.9 148.67 56.9 146.94C56.9 145.2 56.07 144.32 54.42 144.32L24.72 144.32L24.72 138.35L54.42 138.35ZM24.66 133.07L24.66 127.09L46.03 121.43L24.66 121.43L24.66 115.9L61.49 115.9L61.49 121.87L40.8 127.32L61.49 127.32L61.49 133.07L24.66 133.07ZM24.66 110.3L24.66 104.32L61.49 104.32L61.49 110.3L24.66 110.3ZM61.49 98.73L24.66 98.73L24.66 92.75L56.24 92.75L56.24 83.22L61.49 83.22L61.49 98.73ZM24.66 79.63L24.66 64.13L29.88 64.13L29.88 73.66L40.44 73.66L40.44 65.46L45.71 65.46L45.71 73.66L56.24 73.66L56.24 64.13L61.49 64.13L61.49 79.63L24.66 79.63ZM23.83 55.28L22.28 58.17L20.77 57.44C18.86 56.49 17.86 55.27 17.78 53.76L17.78 53.61C17.78 52.67 18.25 51.45 19.18 49.96C19.63 49.24 19.86 48.65 19.86 48.19C19.86 47.79 19.7 47.49 19.37 47.28L17.95 46.41L19.77 43.67L21.22 44.53C22.66 45.43 23.42 46.55 23.49 47.87L23.49 48.02C23.49 48.96 23.02 50.16 22.09 51.63C21.51 52.56 21.2 53.11 21.18 53.3L21.18 53.38C21.18 53.78 21.56 54.16 22.32 54.54L23.83 55.28ZM48.43 42.61L61.49 40.67L61.49 46.71L53.67 47.87L53.67 53.97L61.49 55.15L61.49 61.17L48.47 59.23L24.66 55.01L24.66 46.81L48.43 42.61ZM48.43 48.65L33.09 50.93L48.43 53.21L48.43 48.65ZM54.42 20.75C59.57 20.75 62.15 23.62 62.17 29.35C62.17 35.06 59.58 37.92 54.42 37.92L31.88 37.92C26.73 37.92 24.15 35.06 24.15 29.35C24.15 23.62 26.73 20.75 31.88 20.75L54.42 20.75ZM31.88 26.73C30.22 26.73 29.4 27.59 29.4 29.33L29.4 29.37C29.4 31.09 30.22 31.94 31.88 31.94L54.42 31.94C56.07 31.94 56.9 31.08 56.9 29.35C56.9 27.6 56.07 26.73 54.42 26.73L31.88 26.73Z" />
</svg>